{"title":"Tinker Bell 2008 (1080p Bluray x265 HEVC 10bit 5.1 craigl281)","uid":13544483,"size":1486559562,"categoryP":"video","categoryS":"hd___movies","magnet":"?xt=urn:btih:5dcd0b22da55ae1877a14ea402a6a26aa25267ca&amp;dn=Tinker+Bell+2008+%281080p+Bluray+x265+HEVC+10bit+5.1+craigl281%29&amp;tr=udp%3A%2F%2Ftracker.leechers-paradise.org%3A6969&amp;tr=udp%3A%2F%2Fzer0day.ch%3A1337&amp;tr=udp%3A%2F%2Fopen.demonii.com%3A1337&amp;tr=udp%3A%2F%2Ftracker.coppersurfer.tk%3A6969&amp;tr=udp%3A%2F%2Fexodus.desync.com%3A6969","seeders":0,"leechers":1,"uploader":"craigl281","files":1,"time":1455501997,"description":"CRF 24 \r\n1920x1080\r\n6ch English Audio\r\n\r\nEnglish Subs\r\nBluray Rip\r\n\r\n\r\n\r\n[url=http://extraimago.com/image/fSs][img]http://extraimago.com/images/2016/02/15/vlcsnap-2016-02-14-19h51m24s600.md.png[/img][/url]\r\n[url=http://extraimago.com/image/fS7][img]http://extraimago.com/images/2016/02/15/vlcsnap-2016-02-14-19h51m44s077.md.png[/img][/url]\r\n[url=http://extraimago.com/image/fSc][img]http://extraimago.com/images/2016/02/15/vlcsnap-2016-02-14-19h51m15s625.md.png[/img][/url]\r\n[url=http://extraimago.com/image/fS1][img]http://extraimago.com/images/2016/02/15/vlcsnap-2016-02-14-19h51m31s695.md.png[/img][/url]\r\n\r\n\r\n\r\nFormat : Matroska \r\nFormat version : Version 4 / Version 2 \r\nFile size : 1.38 GiB \r\nDuration : 1h 18mn \r\nOverall bit rate : 2 539 Kbps \r\nEncoded date : UTC 2016-02-11 12:34:00 \r\nWriting application : mkvmerge v8.8.0 ('Wind at my back') 64bit \r\nWriting library : libebml v1.3.3 + libmatroska v1.4.4 \r\nCover : Yes \r\nAttachments : cover.jpg \r\n\r\nVideo \r\nID : 1 \r\nFormat : HEVC \r\nFormat/Info : High Efficiency Video Coding \r\nFormat profile : Main   @Main \r\nCodec ID : V_MPEGH/ISO/HEVC \r\nDuration : 1h 18mn \r\nBit rate : 2 229 Kbps \r\nWidth : 1 920 pixels \r\nHeight : 1 080 pixels \r\nDisplay aspect ratio : 16:9 \r\nFrame rate mode : Constant \r\nFrame rate : 23.976 (24000/1001) fps \r\nColor space : YUV \r\nChroma subsampling : 4:2:0 \r\nBit depth : 10 bits \r\nBits/(Pixel*Frame) : 0.045 \r\nStream size : 1.22 GiB (88%) \r\nWriting library : x265 1.9+9-8e093e85b9ab:[Windows][GCC 5.3.0][64 bit] 10bit \r\nEncoding settings : wpp / ctu=64 / min-cu-size=8 / max-tu-size=32 / tu-intra-depth=1 / tu-inter-depth=1 / me=0 / subme=3 / merange=57 / rect / amp / max-merge=3 / temporal-mvp / no-early-skip / rdpenalty=0 / no-tskip / no-tskip-fast / strong-intra-smoothing / no-lossless / no-cu-lossless / no-constrained-intra / no-fast-intra / open-gop / no-temporal-layers / interlace=0 / keyint=250 / min-keyint=23 / scenecut=40 / rc-lookahead=30 / lookahead-slices=4 / bframes=4 / bframe-bias=0 / b-adapt=2 / ref=4 / limit-refs=3 / limit-modes / weightp / weightb / aq-mode=1 / qg-size=32 / aq-strength=1.00 / cbqpoffs=0 / crqpoffs=0 / rd=4 / psy-rd=0.50 / rdoq-level=2 / psy-rdoq=5.00 / no-rd-refine / signhide / deblock=-1:-1 / sao / no-sao-non-deblock / b-pyramid / cutree / no-intra-refresh / rc=crf / crf=24.0 / qcomp=0.60 / qpmin=0 / qpmax=51 / qpstep=4 / ipratio=1.00 / pbratio=1.00 \r\nDefault : Yes \r\nForced : No \r\n\r\nAudio \r\nID : 2 \r\nFormat : AAC \r\nFormat/Info : Advanced Audio Codec \r\nFormat profile : LC \r\nCodec ID : A_AAC \r\nDuration : 1h 18mn \r\nBit rate : 297 Kbps \r\nChannel(s) : 6 channels \r\nChannel positions : Front: L C R, Side: L R, LFE \r\nSampling rate : 48.0 KHz \r\nFrame rate : 46.875 fps (1024 spf) \r\nCompression mode : Lossy \r\nDelay relative to video : 20ms \r\nStream size : 166 MiB (12%) \r\nLanguage : English \r\nDefault : Yes \r\nForced : No \r\n\r\nText \r\nID : 3 \r\nFormat : PGS \r\nMuxing mode : zlib \r\nCodec ID : S_HDMV/PGS \r\nCodec ID/Info : Picture based subtitle format used on BDs/HD-DVDs \r\nDuration : 1h 12mn \r\nBit rate : 11.0 Kbps \r\nCount of elements : 1856 \r\nStream size : 5.69 MiB (0%) \r\nLanguage : English \r\nDefault : No \r\nForced : No \r\n\r\nMenu \r\n00:00:00.000 : en:Chapter 01 \r\n00:02:54.841 : en:Chapter 02 \r\n00:08:16.120 : en:Chapter 03 \r\n00:14:30.160 : en:Chapter 04 \r\n00:20:30.520 : en:Chapter 05 \r\n00:24:27.883 : en:Chapter 06 \r\n00:29:51.372 : en:Chapter 07 \r\n00:35:04.102 : en:Chapter 08 \r\n00:40:58.330 : en:Chapter 09 \r\n00:43:01.954 : en:Chapter 10 \r\n00:47:15.874 : en:Chapter 11 \r\n00:52:47.372 : en:Chapter 12 \r\n00:56:39.646 : en:Chapter 13 \r\n01:00:05.059 : en:Chapter 14 \r\n01:04:46.883 : en:Chapter 15 \r\n01:10:35.397 : en:Chapter 16","torrent":{"xt":"urn:btih:5dcd0b22da55ae1877a14ea402a6a26aa25267ca","amp;dn":"Tinker+Bell+2008+%281080p+Bluray+x265+HEVC+10bit+5.1+craigl281%29","amp;tr":["udp%3A%2F%2Ftracker.leechers-paradise.org%3A6969","udp%3A%2F%2Fzer0day.ch%3A1337","udp%3A%2F%2Fopen.demonii.com%3A1337","udp%3A%2F%2Ftracker.coppersurfer.tk%3A6969","udp%3A%2F%2Fexodus.desync.com%3A6969"],"infoHash":"5dcd0b22da55ae1877a14ea402a6a26aa25267ca","infoHashBuffer":{"type":"Buffer","data":[93,205,11,34,218,85,174,24,119,161,78,164,2,166,162,106,162,82,103,202]},"announce":[],"urlList":[]}}